Source: R1 Blu-Ray

I had a heck of a time finding these with English audio so went out and bought a Blu-Ray drive for the pc and ripped my copies for back-up. I am limited on upload speed so it may take a little time to get some seeders going but I will seed till there are 6 more seeders.

-------------------------------------------------------
Designed for direct playback on Apple TV, iPad, iPhone & iPod Touch 4th gen, PS3, WDTV, Xbox360, Popcorn Hour, VLC.
-------------------------------------------------------

The Girl With The Dragon Tattoo

Video
ID : 1
Format : AVC
Format/Info : Advanced Video Codec
Format profile : High@L3.1
Format settings, CABAC : Yes
Format settings, ReFrames : 4 frames
Codec ID : avc1
Codec ID/Info : Advanced Video Coding
Duration : 2h 32mn
Bit rate mode : Variable
Bit rate : 2 667 Kbps
Width : 1 280 pixels
Height : 544 pixels
Display aspect ratio : 2.35:1
Frame rate mode : Variable
Frame rate : 23.976 fps
Minimum frame rate : 11.987 fps
Maximum frame rate : 23.981 fps
Color space : YUV
Chroma subsampling : 4:2:0
Bit depth : 8 bits
Scan type : Progressive
Bits/(Pixel*Frame) : 0.160
Stream size : 2.84 GiB (81%)
Writing library : x264 core 112
Audio #1
ID : 2
Format : AAC
Format/Info : Advanced Audio Codec
Format profile : LC
Codec ID : 40
Duration : 2h 32mn
Bit rate mode : Variable
Bit rate : 160 Kbps
Maximum bit rate : 205 Kbps
Channel(s) : 2 channels
Channel positions : Front: L R
Sampling rate : 48.0 KHz
Compression mode : Lossy
Stream size : 175 MiB (5%)
Audio #2
ID : 3
Format : AC-3
Format/Info : Audio Coding 3
Mode extension : CM (complete main)
Codec ID : ac-3
Duration : 2h 32mn
Bit rate mode : Constant
Bit rate : 448 Kbps
Channel(s) : 5 channels
Channel positions : Front: L C R, Side: L R
Sampling rate : 48.0 KHz
Bit depth : 16 bits
Compression mode : Lossy
Stream size : 489 MiB (14%)

The Girl Who Played With Fire

Video
ID : 1
Format : AVC
Format/Info : Advanced Video Codec
Format profile : High@L3.1
Format settings, CABAC : Yes
Format settings, ReFrames : 4 frames
Codec ID : avc1
Codec ID/Info : Advanced Video Coding
Duration : 2h 9mn
Bit rate mode : Variable
Bit rate : 3 604 Kbps
Width : 1 280 pixels
Height : 720 pixels
Display aspect ratio : 16:9
Frame rate mode : Variable
Frame rate : 23.976 fps
Minimum frame rate : 7.991 fps
Maximum frame rate : 129.683 fps
Color space : YUV
Chroma subsampling : 4:2:0
Bit depth : 8 bits
Scan type : Progressive
Bits/(Pixel*Frame) : 0.163
Stream size : 3.27 GiB (82%)
Writing library : x264 core 112
Audio #1
ID : 2
Format : AAC
Format/Info : Advanced Audio Codec
Format profile : LC
Codec ID : 40
Duration : 2h 9mn
Bit rate mode : Variable
Bit rate : 160 Kbps
Maximum bit rate : 383 Kbps
Channel(s) : 2 channels
Channel positions : Front: L R
Sampling rate : 48.0 KHz
Compression mode : Lossy
Stream size : 148 MiB (4%)
Language : English
Audio #2
ID : 3
Format : AC-3
Format/Info : Audio Coding 3
Mode extension : CM (complete main)
Codec ID : ac-3
Duration : 2h 9mn
Bit rate mode : Constant
Bit rate : 640 Kbps
Channel(s) : 6 channels
Channel positions : Front: L C R, Side: L R, LFE
Sampling rate : 48.0 KHz
Bit depth : 16 bits
Compression mode : Lossy
Stream size : 594 MiB (15%)
Language : English

The Girl Who Kicked The Hornet\\\'s Nest

Video
ID : 1
Format : AVC
Format/Info : Advanced Video Codec
Format profile : High@L3.1
Format settings, CABAC : Yes
Format settings, ReFrames : 4 frames
Codec ID : avc1
Codec ID/Info : Advanced Video Coding
Duration : 2h 27mn
Bit rate mode : Variable
Bit rate : 3 085 Kbps
Width : 1 280 pixels
Height : 720 pixels
Display aspect ratio : 16:9
Frame rate mode : Variable
Frame rate : 23.976 fps
Minimum frame rate : 7.991 fps
Maximum frame rate : 24.718 fps
Color space : YUV
Chroma subsampling : 4:2:0
Bit depth : 8 bits
Scan type : Progressive
Bits/(Pixel*Frame) : 0.140
Stream size : 3.17 GiB (79%)
Writing library : x264 core 112
Audio #1
ID : 2
Format : AAC
Format/Info : Advanced Audio Codec
Format profile : LC
Codec ID : 40
Duration : 2h 27mn
Bit rate mode : Variable
Bit rate : 160 Kbps
Maximum bit rate : 387 Kbps
Channel(s) : 2 channels
Channel positions : Front: L R
Sampling rate : 48.0 KHz
Compression mode : Lossy
Stream size : 168 MiB (4%)
Language : English
Audio #2
ID : 3
Format : AC-3
Format/Info : Audio Coding 3
Mode extension : CM (complete main)
Codec ID : ac-3
Duration : 2h 27mn
Bit rate mode : Constant
Bit rate : 640 Kbps
Channel(s) : 6 channels
Channel positions : Front: L C R, Side: L R, LFE
Sampling rate : 48.0 KHz
Bit depth : 16 bits
Compression mode : Lossy
Stream size : 673 MiB (16%)
Language : English 